<svg version="1.2" xmlns="http://www.w3.org/2000/svg" viewBox="0 0 400 220" width="400" height="220"><style>.a{fill:#f5f5f5;stroke:#ededed;stroke-miterlimit:100;stroke-width:4}.b{fill:#ededed}</style><path class="a" d="m400 0v220h-400v-220z"/><path class="b" d="m-1.2 2.2l2.4-4.4 400 220-2.4 4.4z"/><path class="b" d="m398.8-2.2l2.4 4.4-400 220.1-2.4-4.4z"/><path class="a" d="m200 0v110h-200z"/><path class="a" d="m400 110v110h-200z"/><path class="a" d="m400 110v-110h-200z"/><path class="a" d="m200 220v-110h-200z"/><path class="b" d="m97.9 56.3l4.2-2.6 100 165.1-4.2 2.6z"/><path class="b" d="m102.1 166.3l-4.2-2.6 100-164.9 4.2 2.6z"/><path class="b" d="m297.9 166.3l4.2-2.6 100 165.1-4.2 2.6z"/><path class="b" d="m302.1 276.3l-4.2-2.6 100-164.9 4.2 2.6z"/><path class="b" d="m297.9-54.1l4.2-2.6 100 165.1-4.2 2.6z"/><path class="b" d="m302.1 55.9l-4.2-2.6 100-164.9 4.2 2.6z"/><path class="b" d="m400 107.5v5h-404.4v-5z"/></svg>