<svg version="1.2" xmlns="http://www.w3.org/2000/svg" viewBox="0 0 164 164" width="164" height="164"><style>.a{fill:#808080}</style><path fill-rule="evenodd" class="a" d="m138.4 21c2 0 4 0.4 5.9 1.2 1.8 0.7 3.5 1.9 4.9 3.3 1.5 1.4 2.6 3.1 3.4 5 0.8 1.9 1.1 3.9 1.1 5.9v87.1h-143.5v-87.1c0-2 0.4-4 1.2-5.9 0.8-1.9 1.9-3.6 3.4-5 1.4-1.4 3.1-2.6 4.9-3.3 1.9-0.8 3.9-1.2 5.9-1.2zm-112.7 10.3q-1 0-2 0.3-0.9 0.4-1.6 1.2-0.8 0.7-1.2 1.6-0.3 1-0.4 2v76.8l123 0.1v-76.9q0-1-0.3-2-0.4-0.9-1.2-1.6-0.7-0.8-1.6-1.2-1-0.3-2-0.3zm-25.6 97.3h164c0 2-0.4 4-1.2 5.9-0.7 1.9-1.9 3.6-3.3 5-1.4 1.4-3.1 2.6-5 3.3-1.9 0.8-3.9 1.2-5.9 1.2h-133.2c-2 0-4-0.4-5.9-1.2-1.9-0.7-3.6-1.9-5-3.3-1.4-1.4-2.6-3.1-3.3-5-0.8-1.9-1.2-3.9-1.2-5.9z"/><path class="a" d="m77 42.9h-40.2v9.2h13.2v40.7h-13.2v9.2h40.2v-9.2h-13.6v-40.7h13.6z"/><path class="a" d="m111.9 52.4h15.2v-9.3h-39.9v9.3h15v49.7h9.7z"/></svg>